<svg width="302" height="80" viewBox="0 0 302 80" fill="none" xmlns="http://www.w3.org/2000/svg">
<path d="M16.512 56.72C13.504 56.72 10.832 56.192 8.496 55.136C6.192 54.08 4.4 52.544 3.12 50.528C1.84 48.512 1.2 46.144 1.2 43.424C1.2 42.048 1.36 40.656 1.68 39.248C2.448 35.632 3.856 32.512 5.904 29.888C7.984 27.264 10.56 25.248 13.632 23.84C16.736 22.432 20.176 21.728 23.952 21.728C26.448 21.728 28.576 21.936 30.336 22.352C32.128 22.768 33.744 23.44 35.184 24.368L32.88 35.024C31.728 34 30.32 33.264 28.656 32.816C27.024 32.368 25.056 32.144 22.752 32.144C20.256 32.144 18.16 32.768 16.464 34.016C14.768 35.232 13.68 36.976 13.2 39.248C12.976 40.176 12.864 41.104 12.864 42.032C12.864 43.6 13.344 44.784 14.304 45.584C15.264 46.352 16.88 46.736 19.152 46.736C20.08 46.736 20.928 46.608 21.696 46.352L22.368 43.184H18.672L20.064 36.656H33.744L30.096 53.888C26.416 55.776 21.888 56.72 16.512 56.72ZM50.1851 22.448H60.9371L67.2731 56H55.8491L54.8891 50.144H44.9051L41.5451 56H29.6411L50.1851 22.448ZM54.1691 41.792L53.3531 34.064L49.1771 41.792H54.1691ZM83.0539 56.72C80.0459 56.72 77.3739 56.192 75.0379 55.136C72.7339 54.08 70.9419 52.544 69.6619 50.528C68.3819 48.512 67.7419 46.144 67.7419 43.424C67.7419 42.048 67.9019 40.656 68.2219 39.248C69.3739 33.712 71.8699 29.408 75.7099 26.336C79.5819 23.264 84.5099 21.728 90.4939 21.728C92.9579 21.728 95.0859 21.936 96.8779 22.352C98.7019 22.768 100.318 23.44 101.726 24.368L99.4219 35.12C98.2379 34.096 96.8299 33.36 95.1979 32.912C93.5659 32.464 91.5979 32.24 89.2939 32.24C86.7979 32.24 84.7019 32.848 83.0059 34.064C81.3419 35.248 80.2699 36.976 79.7899 39.248C79.5979 40.048 79.5019 40.8 79.5019 41.504C79.5019 43.104 80.0459 44.304 81.1339 45.104C82.2539 45.872 83.9819 46.256 86.3179 46.256C88.5579 46.256 90.6219 46.016 92.5099 45.536C94.3979 45.024 96.2539 44.256 98.0779 43.232L95.8219 53.936C92.1419 55.792 87.8859 56.72 83.0539 56.72ZM109.552 32H100.96L102.976 22.448H131.536L129.52 32H120.928L115.84 56H104.464L109.552 32ZM139.683 22.448H150.435L156.771 56H145.347L144.387 50.144H134.403L131.043 56H119.139L139.683 22.448ZM143.667 41.792L142.851 34.064L138.675 41.792H143.667Z" fill="#243238"/>
<path d="M175.32 31.18C174.6 31.18 173.96 31.048 173.4 30.784C172.848 30.512 172.416 30.128 172.104 29.632C171.8 29.128 171.648 28.536 171.648 27.856C171.648 27.512 171.688 27.164 171.768 26.812C171.96 25.916 172.316 25.14 172.836 24.484C173.356 23.82 173.992 23.312 174.744 22.96C175.496 22.608 176.308 22.432 177.18 22.432C178.324 22.432 179.232 22.7 179.904 23.236L179.592 24.688C179.288 24.392 178.932 24.176 178.524 24.04C178.116 23.896 177.616 23.824 177.024 23.824C176.08 23.824 175.272 24.096 174.6 24.64C173.928 25.176 173.496 25.9 173.304 26.812C173.232 27.132 173.196 27.44 173.196 27.736C173.196 28.4 173.4 28.912 173.808 29.272C174.216 29.632 174.84 29.812 175.68 29.812C176.28 29.812 176.808 29.708 177.264 29.5L177.66 27.616H176.244L176.508 26.404H179.448L178.62 30.316C178.14 30.612 177.628 30.832 177.084 30.976C176.548 31.112 175.96 31.18 175.32 31.18ZM181.559 22.132H183.071L181.187 31H179.675L181.559 22.132ZM185.712 31.18C184.872 31.18 184.196 30.972 183.684 30.556C183.172 30.132 182.916 29.556 182.916 28.828C182.916 28.652 182.944 28.416 183 28.12C183.192 27.176 183.64 26.432 184.344 25.888C185.056 25.336 185.948 25.06 187.02 25.06C187.868 25.06 188.544 25.276 189.048 25.708C189.56 26.132 189.816 26.712 189.816 27.448C189.816 27.656 189.792 27.88 189.744 28.12C189.536 29.08 189.08 29.832 188.376 30.376C187.672 30.912 186.784 31.18 185.712 31.18ZM185.964 29.992C186.516 29.992 186.992 29.82 187.392 29.476C187.8 29.124 188.064 28.672 188.184 28.12C188.232 27.904 188.256 27.7 188.256 27.508C188.256 26.668 187.76 26.248 186.768 26.248C186.208 26.248 185.728 26.416 185.328 26.752C184.936 27.08 184.68 27.536 184.56 28.12C184.512 28.336 184.488 28.532 184.488 28.708C184.488 29.116 184.608 29.432 184.848 29.656C185.088 29.88 185.46 29.992 185.964 29.992ZM193.847 31.18C193.359 31.18 192.955 31.116 192.635 30.988C192.315 30.852 192.019 30.632 191.747 30.328L191.615 31H190.151L192.035 22.132H193.547L192.767 25.804C193.079 25.556 193.443 25.372 193.859 25.252C194.283 25.124 194.715 25.06 195.155 25.06C195.635 25.06 196.059 25.156 196.427 25.348C196.803 25.54 197.095 25.816 197.303 26.176C197.511 26.528 197.615 26.936 197.615 27.4C197.615 27.656 197.587 27.9 197.531 28.132C197.339 29.068 196.915 29.812 196.259 30.364C195.603 30.908 194.799 31.18 193.847 31.18ZM193.727 29.992C194.271 29.992 194.755 29.82 195.179 29.476C195.611 29.132 195.883 28.684 195.995 28.132C196.035 27.916 196.055 27.732 196.055 27.58C196.055 27.164 195.927 26.84 195.671 26.608C195.415 26.368 195.035 26.248 194.531 26.248C194.099 26.248 193.687 26.368 193.295 26.608C192.903 26.84 192.603 27.152 192.395 27.544L192.143 28.708C192.199 29.1 192.367 29.412 192.647 29.644C192.935 29.876 193.295 29.992 193.727 29.992ZM200.575 31.18C200.095 31.18 199.667 31.088 199.291 30.904C198.923 30.712 198.631 30.44 198.415 30.088C198.207 29.736 198.103 29.324 198.103 28.852C198.103 28.604 198.131 28.364 198.187 28.132C198.315 27.532 198.555 27 198.907 26.536C199.259 26.064 199.691 25.7 200.203 25.444C200.715 25.188 201.275 25.06 201.883 25.06C202.819 25.06 203.511 25.308 203.959 25.804L204.079 25.24H205.591L204.367 31H202.903L203.035 30.328C202.723 30.624 202.367 30.84 201.967 30.976C201.567 31.112 201.103 31.18 200.575 31.18ZM201.199 29.992C201.631 29.992 202.039 29.876 202.423 29.644C202.807 29.412 203.111 29.1 203.335 28.708L203.587 27.544C203.547 27.144 203.391 26.828 203.119 26.596C202.847 26.364 202.475 26.248 202.003 26.248C201.435 26.248 200.939 26.424 200.515 26.776C200.099 27.12 199.835 27.572 199.723 28.132C199.683 28.356 199.663 28.54 199.663 28.684C199.663 29.556 200.175 29.992 201.199 29.992ZM207.633 22.132H209.145L207.261 31H205.749L207.633 22.132ZM216.722 22.612H218.198L219.77 31H218.27L217.91 29.068H214.358L213.194 31H211.586L216.722 22.612ZM217.754 27.808L217.154 24.244L215.042 27.808H217.754ZM222.741 31.18C222.325 31.18 221.893 31.132 221.445 31.036C220.997 30.94 220.657 30.808 220.425 30.64L220.701 29.356C220.973 29.548 221.309 29.704 221.709 29.824C222.117 29.936 222.513 29.992 222.897 29.992C223.281 29.992 223.569 29.96 223.761 29.896C223.953 29.824 224.069 29.696 224.109 29.512C224.117 29.48 224.121 29.44 224.121 29.392C224.121 29.224 224.025 29.092 223.833 28.996C223.649 28.9 223.297 28.776 222.777 28.624C222.225 28.464 221.817 28.272 221.553 28.048C221.289 27.816 221.157 27.52 221.157 27.16C221.157 27.048 221.169 26.928 221.193 26.8C221.313 26.224 221.633 25.792 222.153 25.504C222.673 25.208 223.321 25.06 224.097 25.06C224.481 25.06 224.861 25.1 225.237 25.18C225.621 25.26 225.917 25.364 226.125 25.492L225.861 26.728C225.645 26.592 225.373 26.48 225.045 26.392C224.717 26.296 224.381 26.248 224.037 26.248C223.645 26.248 223.341 26.288 223.125 26.368C222.909 26.44 222.777 26.584 222.729 26.8C222.721 26.824 222.717 26.86 222.717 26.908C222.717 27.02 222.765 27.116 222.861 27.196C222.965 27.268 223.129 27.34 223.353 27.412C223.577 27.484 223.825 27.556 224.097 27.628C224.673 27.788 225.081 27.988 225.321 28.228C225.561 28.46 225.681 28.748 225.681 29.092C225.681 29.212 225.669 29.344 225.645 29.488C225.541 30.032 225.265 30.452 224.817 30.748C224.369 31.036 223.677 31.18 222.741 31.18ZM228.425 31.18C228.009 31.18 227.577 31.132 227.129 31.036C226.681 30.94 226.341 30.808 226.109 30.64L226.385 29.356C226.657 29.548 226.993 29.704 227.393 29.824C227.801 29.936 228.197 29.992 228.581 29.992C228.965 29.992 229.253 29.96 229.445 29.896C229.637 29.824 229.753 29.696 229.793 29.512C229.801 29.48 229.805 29.44 229.805 29.392C229.805 29.224 229.709 29.092 229.517 28.996C229.333 28.9 228.981 28.776 228.461 28.624C227.909 28.464 227.501 28.272 227.237 28.048C226.973 27.816 226.841 27.52 226.841 27.16C226.841 27.048 226.853 26.928 226.877 26.8C226.997 26.224 227.317 25.792 227.837 25.504C228.357 25.208 229.005 25.06 229.781 25.06C230.165 25.06 230.545 25.1 230.921 25.18C231.305 25.26 231.601 25.364 231.809 25.492L231.545 26.728C231.329 26.592 231.057 26.48 230.729 26.392C230.401 26.296 230.065 26.248 229.721 26.248C229.329 26.248 229.025 26.288 228.809 26.368C228.593 26.44 228.461 26.584 228.413 26.8C228.405 26.824 228.401 26.86 228.401 26.908C228.401 27.02 228.449 27.116 228.545 27.196C228.649 27.268 228.813 27.34 229.037 27.412C229.261 27.484 229.509 27.556 229.781 27.628C230.357 27.788 230.765 27.988 231.005 28.228C231.245 28.46 231.365 28.748 231.365 29.092C231.365 29.212 231.353 29.344 231.329 29.488C231.225 30.032 230.949 30.452 230.501 30.748C230.053 31.036 229.361 31.18 228.425 31.18ZM235.409 31.18C234.521 31.18 233.813 30.976 233.285 30.568C232.757 30.152 232.493 29.576 232.493 28.84C232.493 28.664 232.521 28.428 232.577 28.132C232.785 27.18 233.213 26.432 233.861 25.888C234.517 25.336 235.373 25.06 236.429 25.06C237.253 25.06 237.889 25.272 238.337 25.696C238.793 26.12 239.021 26.672 239.021 27.352C239.021 27.56 238.997 27.78 238.949 28.012L238.805 28.708H233.897L233.885 28.876C233.885 29.268 234.041 29.552 234.353 29.728C234.665 29.904 235.165 29.992 235.853 29.992C236.221 29.992 236.605 29.96 237.005 29.896C237.405 29.832 237.761 29.744 238.073 29.632L237.821 30.796C237.525 30.908 237.153 31 236.705 31.072C236.265 31.144 235.833 31.18 235.409 31.18ZM237.593 27.676C237.617 27.54 237.629 27.416 237.629 27.304C237.629 26.952 237.509 26.688 237.269 26.512C237.029 26.336 236.657 26.248 236.153 26.248C235.625 26.248 235.181 26.376 234.821 26.632C234.461 26.888 234.225 27.236 234.113 27.676H237.593ZM240.753 25.24H242.217L242.013 26.164C242.309 25.852 242.689 25.62 243.153 25.468C243.617 25.316 244.125 25.24 244.677 25.24L244.425 26.392C243.841 26.392 243.313 26.484 242.841 26.668C242.377 26.844 242.021 27.124 241.773 27.508L241.041 31H239.529L240.753 25.24ZM246.684 31.18C246.18 31.18 245.792 31.056 245.52 30.808C245.248 30.56 245.112 30.208 245.112 29.752C245.112 29.576 245.136 29.38 245.184 29.164L245.772 26.392H244.908L245.16 25.24H246.024L246.384 23.512H247.896L247.536 25.24H248.916L248.664 26.392H247.284L246.732 28.972C246.692 29.188 246.672 29.344 246.672 29.44C246.672 29.64 246.728 29.784 246.84 29.872C246.952 29.952 247.144 29.992 247.416 29.992C247.696 29.992 247.968 29.936 248.232 29.824L247.992 30.976C247.624 31.112 247.188 31.18 246.684 31.18ZM251.348 24.232C251.14 24.232 250.972 24.172 250.844 24.052C250.716 23.924 250.652 23.764 250.652 23.572C250.652 23.292 250.76 23.052 250.976 22.852C251.192 22.644 251.436 22.54 251.708 22.54C251.916 22.54 252.084 22.604 252.212 22.732C252.348 22.852 252.416 23.008 252.416 23.2C252.416 23.48 252.308 23.724 252.092 23.932C251.876 24.132 251.628 24.232 251.348 24.232ZM250.376 25.24H251.912L250.688 31H249.152L250.376 25.24ZM252.605 25.24H254.081L254.789 29.224L257.201 25.24H258.773L255.173 31H253.757L252.605 25.24ZM261.457 31.18C260.569 31.18 259.861 30.976 259.333 30.568C258.805 30.152 258.541 29.576 258.541 28.84C258.541 28.664 258.569 28.428 258.625 28.132C258.833 27.18 259.261 26.432 259.909 25.888C260.565 25.336 261.421 25.06 262.477 25.06C263.301 25.06 263.937 25.272 264.385 25.696C264.841 26.12 265.069 26.672 265.069 27.352C265.069 27.56 265.045 27.78 264.997 28.012L264.853 28.708H259.945L259.933 28.876C259.933 29.268 260.089 29.552 260.401 29.728C260.713 29.904 261.213 29.992 261.901 29.992C262.269 29.992 262.653 29.96 263.053 29.896C263.453 29.832 263.809 29.744 264.121 29.632L263.869 30.796C263.573 30.908 263.201 31 262.753 31.072C262.313 31.144 261.881 31.18 261.457 31.18ZM263.641 27.676C263.665 27.54 263.677 27.416 263.677 27.304C263.677 26.952 263.557 26.688 263.317 26.512C263.077 26.336 262.705 26.248 262.201 26.248C261.673 26.248 261.229 26.376 260.869 26.632C260.509 26.888 260.273 27.236 260.161 27.676H263.641ZM175.32 44.18C174.616 44.18 173.988 44.04 173.436 43.76C172.884 43.48 172.452 43.084 172.14 42.572C171.828 42.052 171.672 41.452 171.672 40.772C171.672 40.484 171.712 40.14 171.792 39.74C171.976 38.852 172.316 38.088 172.812 37.448C173.316 36.8 173.94 36.304 174.684 35.96C175.436 35.608 176.268 35.432 177.18 35.432C178.348 35.432 179.26 35.708 179.916 36.26L179.604 37.712C179.036 37.12 178.176 36.824 177.024 36.824C176.408 36.824 175.84 36.948 175.32 37.196C174.808 37.436 174.376 37.784 174.024 38.24C173.672 38.688 173.432 39.212 173.304 39.812C173.24 40.092 173.208 40.384 173.208 40.688C173.208 41.36 173.42 41.88 173.844 42.248C174.268 42.616 174.904 42.8 175.752 42.8C176.344 42.8 176.884 42.728 177.372 42.584C177.868 42.432 178.348 42.192 178.812 41.864L178.512 43.316C177.744 43.892 176.68 44.18 175.32 44.18ZM182.349 44.18C181.509 44.18 180.833 43.972 180.321 43.556C179.809 43.132 179.553 42.556 179.553 41.828C179.553 41.652 179.581 41.416 179.637 41.12C179.829 40.176 180.277 39.432 180.981 38.888C181.693 38.336 182.585 38.06 183.657 38.06C184.505 38.06 185.181 38.276 185.685 38.708C186.197 39.132 186.453 39.712 186.453 40.448C186.453 40.656 186.429 40.88 186.381 41.12C186.173 42.08 185.717 42.832 185.013 43.376C184.309 43.912 183.421 44.18 182.349 44.18ZM182.601 42.992C183.153 42.992 183.629 42.82 184.029 42.476C184.437 42.124 184.701 41.672 184.821 41.12C184.869 40.904 184.893 40.7 184.893 40.508C184.893 39.668 184.397 39.248 183.405 39.248C182.845 39.248 182.365 39.416 181.965 39.752C181.573 40.08 181.317 40.536 181.197 41.12C181.149 41.336 181.125 41.532 181.125 41.708C181.125 42.116 181.245 42.432 181.485 42.656C181.725 42.88 182.097 42.992 182.601 42.992ZM188.188 38.24H189.604L189.436 38.996C189.764 38.692 190.116 38.46 190.492 38.3C190.868 38.14 191.232 38.06 191.584 38.06C192.024 38.06 192.364 38.136 192.604 38.288C192.844 38.44 193.004 38.66 193.084 38.948C193.404 38.66 193.76 38.44 194.152 38.288C194.552 38.136 194.932 38.06 195.292 38.06C195.852 38.06 196.264 38.188 196.528 38.444C196.792 38.7 196.924 39.06 196.924 39.524C196.924 39.724 196.9 39.944 196.852 40.184L196.048 44H194.596L195.352 40.388C195.392 40.172 195.412 40.008 195.412 39.896C195.412 39.664 195.348 39.5 195.22 39.404C195.1 39.3 194.904 39.248 194.632 39.248C194.072 39.248 193.576 39.468 193.144 39.908C193.12 40.092 193.084 40.3 193.036 40.532L192.304 44H190.84L191.608 40.364C191.648 40.14 191.668 39.968 191.668 39.848C191.668 39.632 191.612 39.48 191.5 39.392C191.396 39.296 191.216 39.248 190.96 39.248C190.68 39.248 190.392 39.328 190.096 39.488C189.8 39.64 189.512 39.868 189.232 40.172L188.428 44H186.964L188.188 38.24ZM198.653 38.24H200.069L199.901 38.996C200.229 38.692 200.581 38.46 200.957 38.3C201.333 38.14 201.697 38.06 202.049 38.06C202.489 38.06 202.829 38.136 203.069 38.288C203.309 38.44 203.469 38.66 203.549 38.948C203.869 38.66 204.225 38.44 204.617 38.288C205.017 38.136 205.397 38.06 205.757 38.06C206.317 38.06 206.729 38.188 206.993 38.444C207.257 38.7 207.389 39.06 207.389 39.524C207.389 39.724 207.365 39.944 207.317 40.184L206.513 44H205.061L205.817 40.388C205.857 40.172 205.877 40.008 205.877 39.896C205.877 39.664 205.813 39.5 205.685 39.404C205.565 39.3 205.369 39.248 205.097 39.248C204.537 39.248 204.041 39.468 203.609 39.908C203.585 40.092 203.549 40.3 203.501 40.532L202.769 44H201.305L202.073 40.364C202.113 40.14 202.133 39.968 202.133 39.848C202.133 39.632 202.077 39.48 201.965 39.392C201.861 39.296 201.681 39.248 201.425 39.248C201.145 39.248 200.857 39.328 200.561 39.488C200.265 39.64 199.977 39.868 199.697 40.172L198.893 44H197.429L198.653 38.24ZM210.101 44.18C209.485 44.18 209.017 44.028 208.697 43.724C208.377 43.412 208.217 42.992 208.217 42.464C208.217 42.24 208.237 42.044 208.277 41.876L209.057 38.24H210.569L209.825 41.732C209.785 41.948 209.765 42.116 209.765 42.236C209.765 42.5 209.841 42.692 209.993 42.812C210.145 42.932 210.389 42.992 210.725 42.992C211.069 42.992 211.409 42.912 211.745 42.752C212.089 42.584 212.401 42.336 212.681 42.008L213.485 38.24H214.997L213.773 44H212.309L212.465 43.22C212.129 43.548 211.753 43.792 211.337 43.952C210.929 44.104 210.517 44.18 210.101 44.18ZM216.442 38.24H217.906L217.738 39.02C218.074 38.716 218.45 38.48 218.866 38.312C219.29 38.144 219.702 38.06 220.102 38.06C220.718 38.06 221.186 38.224 221.506 38.552C221.826 38.872 221.986 39.288 221.986 39.8C221.986 39.96 221.966 40.148 221.926 40.364L221.158 44H219.646L220.378 40.508C220.418 40.308 220.438 40.148 220.438 40.028C220.438 39.764 220.362 39.568 220.21 39.44C220.058 39.312 219.814 39.248 219.478 39.248C219.134 39.248 218.79 39.332 218.446 39.5C218.11 39.66 217.802 39.904 217.522 40.232L216.73 44H215.218L216.442 38.24ZM224.822 37.232C224.614 37.232 224.446 37.172 224.318 37.052C224.19 36.924 224.126 36.764 224.126 36.572C224.126 36.292 224.234 36.052 224.45 35.852C224.666 35.644 224.91 35.54 225.182 35.54C225.39 35.54 225.558 35.604 225.686 35.732C225.822 35.852 225.89 36.008 225.89 36.2C225.89 36.48 225.782 36.724 225.566 36.932C225.35 37.132 225.102 37.232 224.822 37.232ZM223.85 38.24H225.386L224.162 44H222.626L223.85 38.24ZM227.962 44.18C227.458 44.18 227.07 44.056 226.798 43.808C226.526 43.56 226.39 43.208 226.39 42.752C226.39 42.576 226.414 42.38 226.462 42.164L227.05 39.392H226.186L226.438 38.24H227.302L227.662 36.512H229.174L228.814 38.24H230.194L229.942 39.392H228.562L228.01 41.972C227.97 42.188 227.95 42.344 227.95 42.44C227.95 42.64 228.006 42.784 228.118 42.872C228.23 42.952 228.422 42.992 228.694 42.992C228.974 42.992 229.246 42.936 229.51 42.824L229.27 43.976C228.902 44.112 228.466 44.18 227.962 44.18ZM231.955 46.76C231.563 46.76 231.175 46.724 230.791 46.652C230.407 46.58 230.103 46.484 229.879 46.364L230.131 45.164C230.699 45.436 231.375 45.572 232.159 45.572C232.855 45.572 233.375 45.428 233.719 45.14C234.071 44.86 234.335 44.416 234.511 43.808L234.715 43.064C234.051 43.704 233.263 44.024 232.351 44.024C231.735 44.024 231.267 43.872 230.947 43.568C230.627 43.256 230.467 42.836 230.467 42.308C230.467 42.084 230.487 41.888 230.527 41.72L231.271 38.24H232.783L232.075 41.576C232.035 41.792 232.015 41.96 232.015 42.08C232.015 42.344 232.091 42.536 232.243 42.656C232.395 42.776 232.639 42.836 232.975 42.836C233.319 42.836 233.659 42.756 233.995 42.596C234.339 42.428 234.651 42.18 234.931 41.852L235.699 38.24H237.211L236.059 43.652C235.835 44.692 235.399 45.468 234.751 45.98C234.111 46.5 233.179 46.76 231.955 46.76ZM243.99 36.872H241.458L241.722 35.612H248.31L248.046 36.872H245.514L244.002 44H242.478L243.99 36.872ZM247.814 38.24H249.278L249.074 39.164C249.37 38.852 249.75 38.62 250.214 38.468C250.678 38.316 251.186 38.24 251.738 38.24L251.486 39.392C250.902 39.392 250.374 39.484 249.902 39.668C249.438 39.844 249.082 40.124 248.834 40.508L248.102 44H246.59L247.814 38.24ZM254.306 44.18C253.418 44.18 252.71 43.976 252.182 43.568C251.654 43.152 251.39 42.576 251.39 41.84C251.39 41.664 251.418 41.428 251.474 41.132C251.682 40.18 252.11 39.432 252.758 38.888C253.414 38.336 254.27 38.06 255.326 38.06C256.15 38.06 256.786 38.272 257.234 38.696C257.69 39.12 257.918 39.672 257.918 40.352C257.918 40.56 257.894 40.78 257.846 41.012L257.702 41.708H252.794L252.782 41.876C252.782 42.268 252.938 42.552 253.25 42.728C253.562 42.904 254.062 42.992 254.75 42.992C255.118 42.992 255.502 42.96 255.902 42.896C256.302 42.832 256.658 42.744 256.97 42.632L256.718 43.796C256.422 43.908 256.05 44 255.602 44.072C255.162 44.144 254.73 44.18 254.306 44.18ZM256.49 40.676C256.514 40.54 256.526 40.416 256.526 40.304C256.526 39.952 256.406 39.688 256.166 39.512C255.926 39.336 255.554 39.248 255.05 39.248C254.522 39.248 254.078 39.376 253.718 39.632C253.358 39.888 253.122 40.236 253.01 40.676H256.49ZM261.174 44.18C260.694 44.18 260.266 44.088 259.89 43.904C259.522 43.712 259.23 43.44 259.014 43.088C258.806 42.736 258.702 42.324 258.702 41.852C258.702 41.604 258.73 41.364 258.786 41.132C258.914 40.532 259.154 40 259.506 39.536C259.858 39.064 260.29 38.7 260.802 38.444C261.314 38.188 261.874 38.06 262.482 38.06C263.418 38.06 264.11 38.308 264.558 38.804L264.678 38.24H266.19L264.966 44H263.502L263.634 43.328C263.322 43.624 262.966 43.84 262.566 43.976C262.166 44.112 261.702 44.18 261.174 44.18ZM261.798 42.992C262.23 42.992 262.638 42.876 263.022 42.644C263.406 42.412 263.71 42.1 263.934 41.708L264.186 40.544C264.146 40.144 263.99 39.828 263.718 39.596C263.446 39.364 263.074 39.248 262.602 39.248C262.034 39.248 261.538 39.424 261.114 39.776C260.698 40.12 260.434 40.572 260.322 41.132C260.282 41.356 260.262 41.54 260.262 41.684C260.262 42.556 260.774 42.992 261.798 42.992ZM268.311 44.18C267.807 44.18 267.419 44.056 267.147 43.808C266.875 43.56 266.739 43.208 266.739 42.752C266.739 42.576 266.763 42.38 266.811 42.164L267.399 39.392H266.535L266.787 38.24H267.651L268.011 36.512H269.523L269.163 38.24H270.543L270.291 39.392H268.911L268.359 41.972C268.319 42.188 268.299 42.344 268.299 42.44C268.299 42.64 268.355 42.784 268.467 42.872C268.579 42.952 268.771 42.992 269.043 42.992C269.323 42.992 269.595 42.936 269.859 42.824L269.619 43.976C269.251 44.112 268.815 44.18 268.311 44.18ZM271.68 38.24H273.096L272.928 38.996C273.256 38.692 273.608 38.46 273.984 38.3C274.36 38.14 274.724 38.06 275.076 38.06C275.516 38.06 275.856 38.136 276.096 38.288C276.336 38.44 276.496 38.66 276.576 38.948C276.896 38.66 277.252 38.44 277.644 38.288C278.044 38.136 278.424 38.06 278.784 38.06C279.344 38.06 279.756 38.188 280.02 38.444C280.284 38.7 280.416 39.06 280.416 39.524C280.416 39.724 280.392 39.944 280.344 40.184L279.54 44H278.088L278.844 40.388C278.884 40.172 278.904 40.008 278.904 39.896C278.904 39.664 278.84 39.5 278.712 39.404C278.592 39.3 278.396 39.248 278.124 39.248C277.564 39.248 277.068 39.468 276.636 39.908C276.612 40.092 276.576 40.3 276.528 40.532L275.796 44H274.332L275.1 40.364C275.14 40.14 275.16 39.968 275.16 39.848C275.16 39.632 275.104 39.48 274.992 39.392C274.888 39.296 274.708 39.248 274.452 39.248C274.172 39.248 273.884 39.328 273.588 39.488C273.292 39.64 273.004 39.868 272.724 40.172L271.92 44H270.456L271.68 38.24ZM284.112 44.18C283.224 44.18 282.516 43.976 281.988 43.568C281.46 43.152 281.196 42.576 281.196 41.84C281.196 41.664 281.224 41.428 281.28 41.132C281.488 40.18 281.916 39.432 282.564 38.888C283.22 38.336 284.076 38.06 285.132 38.06C285.956 38.06 286.592 38.272 287.04 38.696C287.496 39.12 287.724 39.672 287.724 40.352C287.724 40.56 287.7 40.78 287.652 41.012L287.508 41.708H282.6L282.588 41.876C282.588 42.268 282.744 42.552 283.056 42.728C283.368 42.904 283.868 42.992 284.556 42.992C284.924 42.992 285.308 42.96 285.708 42.896C286.108 42.832 286.464 42.744 286.776 42.632L286.524 43.796C286.228 43.908 285.856 44 285.408 44.072C284.968 44.144 284.536 44.18 284.112 44.18ZM286.296 40.676C286.32 40.54 286.332 40.416 286.332 40.304C286.332 39.952 286.212 39.688 285.972 39.512C285.732 39.336 285.36 39.248 284.856 39.248C284.328 39.248 283.884 39.376 283.524 39.632C283.164 39.888 282.928 40.236 282.816 40.676H286.296ZM289.457 38.24H290.921L290.753 39.02C291.089 38.716 291.465 38.48 291.881 38.312C292.305 38.144 292.717 38.06 293.117 38.06C293.733 38.06 294.201 38.224 294.521 38.552C294.841 38.872 295.001 39.288 295.001 39.8C295.001 39.96 294.981 40.148 294.941 40.364L294.173 44H292.661L293.393 40.508C293.433 40.308 293.453 40.148 293.453 40.028C293.453 39.764 293.377 39.568 293.225 39.44C293.073 39.312 292.829 39.248 292.493 39.248C292.149 39.248 291.805 39.332 291.461 39.5C291.125 39.66 290.817 39.904 290.537 40.232L289.745 44H288.233L289.457 38.24ZM297.825 44.18C297.321 44.18 296.933 44.056 296.661 43.808C296.389 43.56 296.253 43.208 296.253 42.752C296.253 42.576 296.277 42.38 296.325 42.164L296.913 39.392H296.049L296.301 38.24H297.165L297.525 36.512H299.037L298.677 38.24H300.057L299.805 39.392H298.425L297.873 41.972C297.833 42.188 297.813 42.344 297.813 42.44C297.813 42.64 297.869 42.784 297.981 42.872C298.093 42.952 298.285 42.992 298.557 42.992C298.837 42.992 299.109 42.936 299.373 42.824L299.133 43.976C298.765 44.112 298.329 44.18 297.825 44.18ZM176.016 48.612H177.492L179.064 57H177.564L177.204 55.068H173.652L172.488 57H170.88L176.016 48.612ZM177.048 53.808L176.448 50.244L174.336 53.808H177.048ZM182.035 57.18C181.619 57.18 181.187 57.132 180.739 57.036C180.291 56.94 179.951 56.808 179.719 56.64L179.995 55.356C180.267 55.548 180.603 55.704 181.003 55.824C181.411 55.936 181.807 55.992 182.191 55.992C182.575 55.992 182.863 55.96 183.055 55.896C183.247 55.824 183.363 55.696 183.403 55.512C183.411 55.48 183.415 55.44 183.415 55.392C183.415 55.224 183.319 55.092 183.127 54.996C182.943 54.9 182.591 54.776 182.071 54.624C181.519 54.464 181.111 54.272 180.847 54.048C180.583 53.816 180.451 53.52 180.451 53.16C180.451 53.048 180.463 52.928 180.487 52.8C180.607 52.224 180.927 51.792 181.447 51.504C181.967 51.208 182.615 51.06 183.391 51.06C183.775 51.06 184.155 51.1 184.531 51.18C184.915 51.26 185.211 51.364 185.419 51.492L185.155 52.728C184.939 52.592 184.667 52.48 184.339 52.392C184.011 52.296 183.675 52.248 183.331 52.248C182.939 52.248 182.635 52.288 182.419 52.368C182.203 52.44 182.071 52.584 182.023 52.8C182.015 52.824 182.011 52.86 182.011 52.908C182.011 53.02 182.059 53.116 182.155 53.196C182.259 53.268 182.423 53.34 182.647 53.412C182.871 53.484 183.119 53.556 183.391 53.628C183.967 53.788 184.375 53.988 184.615 54.228C184.855 54.46 184.975 54.748 184.975 55.092C184.975 55.212 184.963 55.344 184.939 55.488C184.835 56.032 184.559 56.452 184.111 56.748C183.663 57.036 182.971 57.18 182.035 57.18ZM187.718 57.18C187.302 57.18 186.87 57.132 186.422 57.036C185.974 56.94 185.634 56.808 185.402 56.64L185.678 55.356C185.95 55.548 186.286 55.704 186.686 55.824C187.094 55.936 187.49 55.992 187.874 55.992C188.258 55.992 188.546 55.96 188.738 55.896C188.93 55.824 189.046 55.696 189.086 55.512C189.094 55.48 189.098 55.44 189.098 55.392C189.098 55.224 189.002 55.092 188.81 54.996C188.626 54.9 188.274 54.776 187.754 54.624C187.202 54.464 186.794 54.272 186.53 54.048C186.266 53.816 186.134 53.52 186.134 53.16C186.134 53.048 186.146 52.928 186.17 52.8C186.29 52.224 186.61 51.792 187.13 51.504C187.65 51.208 188.298 51.06 189.074 51.06C189.458 51.06 189.838 51.1 190.214 51.18C190.598 51.26 190.894 51.364 191.102 51.492L190.838 52.728C190.622 52.592 190.35 52.48 190.022 52.392C189.694 52.296 189.358 52.248 189.014 52.248C188.622 52.248 188.318 52.288 188.102 52.368C187.886 52.44 187.754 52.584 187.706 52.8C187.698 52.824 187.694 52.86 187.694 52.908C187.694 53.02 187.742 53.116 187.838 53.196C187.942 53.268 188.106 53.34 188.33 53.412C188.554 53.484 188.802 53.556 189.074 53.628C189.65 53.788 190.058 53.988 190.298 54.228C190.538 54.46 190.658 54.748 190.658 55.092C190.658 55.212 190.646 55.344 190.622 55.488C190.518 56.032 190.242 56.452 189.794 56.748C189.346 57.036 188.654 57.18 187.718 57.18ZM194.419 57.18C193.579 57.18 192.903 56.972 192.391 56.556C191.879 56.132 191.623 55.556 191.623 54.828C191.623 54.652 191.651 54.416 191.707 54.12C191.899 53.176 192.347 52.432 193.051 51.888C193.763 51.336 194.655 51.06 195.727 51.06C196.575 51.06 197.251 51.276 197.755 51.708C198.267 52.132 198.523 52.712 198.523 53.448C198.523 53.656 198.499 53.88 198.451 54.12C198.243 55.08 197.787 55.832 197.083 56.376C196.379 56.912 195.491 57.18 194.419 57.18ZM194.671 55.992C195.223 55.992 195.699 55.82 196.099 55.476C196.507 55.124 196.771 54.672 196.891 54.12C196.939 53.904 196.963 53.7 196.963 53.508C196.963 52.668 196.467 52.248 195.475 52.248C194.915 52.248 194.435 52.416 194.035 52.752C193.643 53.08 193.387 53.536 193.267 54.12C193.219 54.336 193.195 54.532 193.195 54.708C193.195 55.116 193.315 55.432 193.555 55.656C193.795 55.88 194.167 55.992 194.671 55.992ZM201.942 57.18C201.398 57.18 200.914 57.084 200.49 56.892C200.074 56.7 199.746 56.428 199.506 56.076C199.266 55.716 199.146 55.292 199.146 54.804C199.146 54.596 199.17 54.372 199.218 54.132C199.426 53.156 199.886 52.4 200.598 51.864C201.31 51.328 202.202 51.06 203.274 51.06C204.17 51.06 204.846 51.236 205.302 51.588L205.05 52.8C204.826 52.616 204.554 52.48 204.234 52.392C203.914 52.296 203.562 52.248 203.178 52.248C202.562 52.248 202.038 52.404 201.606 52.716C201.174 53.02 200.89 53.492 200.754 54.132C200.714 54.3 200.694 54.488 200.694 54.696C200.694 55.144 200.834 55.472 201.114 55.68C201.394 55.888 201.806 55.992 202.35 55.992C203.158 55.992 203.898 55.8 204.57 55.416L204.306 56.616C203.666 56.992 202.878 57.18 201.942 57.18ZM207.713 50.232C207.505 50.232 207.337 50.172 207.209 50.052C207.081 49.924 207.017 49.764 207.017 49.572C207.017 49.292 207.125 49.052 207.341 48.852C207.557 48.644 207.801 48.54 208.073 48.54C208.281 48.54 208.449 48.604 208.577 48.732C208.713 48.852 208.781 49.008 208.781 49.2C208.781 49.48 208.673 49.724 208.457 49.932C208.241 50.132 207.993 50.232 207.713 50.232ZM206.741 51.24H208.277L207.053 57H205.517L206.741 51.24ZM211.333 57.18C210.853 57.18 210.425 57.088 210.049 56.904C209.681 56.712 209.389 56.44 209.173 56.088C208.965 55.736 208.861 55.324 208.861 54.852C208.861 54.604 208.889 54.364 208.945 54.132C209.073 53.532 209.313 53 209.665 52.536C210.017 52.064 210.449 51.7 210.961 51.444C211.473 51.188 212.033 51.06 212.641 51.06C213.577 51.06 214.269 51.308 214.717 51.804L214.837 51.24H216.349L215.125 57H213.661L213.793 56.328C213.481 56.624 213.125 56.84 212.725 56.976C212.325 57.112 211.861 57.18 211.333 57.18ZM211.957 55.992C212.389 55.992 212.797 55.876 213.181 55.644C213.565 55.412 213.869 55.1 214.093 54.708L214.345 53.544C214.305 53.144 214.149 52.828 213.877 52.596C213.605 52.364 213.233 52.248 212.761 52.248C212.193 52.248 211.697 52.424 211.273 52.776C210.857 53.12 210.593 53.572 210.481 54.132C210.441 54.356 210.421 54.54 210.421 54.684C210.421 55.556 210.933 55.992 211.957 55.992ZM218.59 57.18C218.086 57.18 217.698 57.056 217.426 56.808C217.154 56.56 217.018 56.208 217.018 55.752C217.018 55.576 217.042 55.38 217.09 55.164L217.678 52.392H216.814L217.066 51.24H217.93L218.29 49.512H219.802L219.442 51.24H220.822L220.57 52.392H219.19L218.638 54.972C218.598 55.188 218.578 55.344 218.578 55.44C218.578 55.64 218.634 55.784 218.746 55.872C218.858 55.952 219.05 55.992 219.322 55.992C219.602 55.992 219.874 55.936 220.138 55.824L219.898 56.976C219.53 57.112 219.094 57.18 218.59 57.18ZM223.254 50.232C223.046 50.232 222.878 50.172 222.75 50.052C222.622 49.924 222.558 49.764 222.558 49.572C222.558 49.292 222.666 49.052 222.882 48.852C223.098 48.644 223.342 48.54 223.614 48.54C223.822 48.54 223.99 48.604 224.118 48.732C224.254 48.852 224.322 49.008 224.322 49.2C224.322 49.48 224.214 49.724 223.998 49.932C223.782 50.132 223.534 50.232 223.254 50.232ZM222.282 51.24H223.818L222.594 57H221.058L222.282 51.24ZM227.211 57.18C226.371 57.18 225.695 56.972 225.183 56.556C224.671 56.132 224.415 55.556 224.415 54.828C224.415 54.652 224.443 54.416 224.499 54.12C224.691 53.176 225.139 52.432 225.843 51.888C226.555 51.336 227.447 51.06 228.519 51.06C229.367 51.06 230.043 51.276 230.547 51.708C231.059 52.132 231.315 52.712 231.315 53.448C231.315 53.656 231.291 53.88 231.243 54.12C231.035 55.08 230.579 55.832 229.875 56.376C229.171 56.912 228.283 57.18 227.211 57.18ZM227.463 55.992C228.015 55.992 228.491 55.82 228.891 55.476C229.299 55.124 229.563 54.672 229.683 54.12C229.731 53.904 229.755 53.7 229.755 53.508C229.755 52.668 229.259 52.248 228.267 52.248C227.707 52.248 227.227 52.416 226.827 52.752C226.435 53.08 226.179 53.536 226.059 54.12C226.011 54.336 225.987 54.532 225.987 54.708C225.987 55.116 226.107 55.432 226.347 55.656C226.587 55.88 226.959 55.992 227.463 55.992ZM233.05 51.24H234.514L234.346 52.02C234.682 51.716 235.058 51.48 235.474 51.312C235.898 51.144 236.31 51.06 236.71 51.06C237.326 51.06 237.794 51.224 238.114 51.552C238.434 51.872 238.594 52.288 238.594 52.8C238.594 52.96 238.574 53.148 238.534 53.364L237.766 57H236.254L236.986 53.508C237.026 53.308 237.046 53.148 237.046 53.028C237.046 52.764 236.97 52.568 236.818 52.44C236.666 52.312 236.422 52.248 236.086 52.248C235.742 52.248 235.398 52.332 235.054 52.5C234.718 52.66 234.41 52.904 234.13 53.232L233.338 57H231.826L233.05 51.24Z" fill="black"/>
</svg>
