<svg width="96" height="18" viewBox="0 0 96 18" fill="none" xmlns="http://www.w3.org/2000/svg">
<path d="M2 1.04614H2.25222L9.9312 9.48177L17.4959 1.04614H17.7708V16.7939H14.6763V10.9487C14.6763 9.89459 14.7909 8.22104 14.7909 8.22104C14.7909 8.22104 13.851 9.59638 13.1177 10.4217L10.0232 13.883H9.72497L6.63045 10.4217C5.8968 9.59638 4.95726 8.22104 4.95726 8.22104C4.95726 8.22104 5.07188 9.89423 5.07188 10.9487V16.7939H2V1.04614Z" fill="#A4A4A4"/>
<path d="M26.3086 1.06885H26.5835L33.7124 16.7936H30.343L29.6094 15.0288H23.2827L22.5491 16.7936H19.4542L26.3086 1.06885ZM28.4633 12.3468L27.3401 9.64208C26.8817 8.54195 26.4003 6.84577 26.4003 6.84577C26.4003 6.84577 25.9418 8.54195 25.4834 9.64208L24.3602 12.3468H28.4633Z" fill="#A4A4A4"/>
<path d="M57.0369 1.06885H57.3121L64.4411 16.7936H61.0713L60.338 15.0288H54.011L53.2777 16.7936H50.1832L57.0369 1.06885ZM59.1919 12.3468L58.0684 9.64208C57.61 8.54195 57.1289 6.84577 57.1289 6.84577C57.1289 6.84577 56.6705 8.54195 56.212 9.64208L55.0885 12.3468H59.1919Z" fill="#A4A4A4"/>
<path d="M65.1163 16.5186L72.2682 4.02596H66.3774V1.2063H77.2195V1.48151L70.0906 13.9742H76.8301V16.7935H65.1167V16.5186H65.1163Z" fill="#A4A4A4"/>
<path d="M78.2588 8.99982C78.2588 4.39272 81.8347 1 86.3276 1C90.8204 1 94.3967 4.39272 94.3967 8.99982C94.3967 13.6073 90.8208 17 86.3276 17C81.8351 17 78.2588 13.6073 78.2588 8.99982ZM91.0956 8.99982C91.0956 6.0889 89.1702 3.86494 86.3276 3.86494C83.4853 3.86494 81.5595 6.08855 81.5595 8.99982C81.5595 11.9111 83.4849 14.1347 86.3276 14.1347C89.1702 14.1347 91.0956 11.9111 91.0956 8.99982Z" fill="#707070"/>
<path d="M31.6749 1.36853H35.0068L37.2357 7.5144C37.6185 8.57279 38.0461 10.2835 38.0461 10.2835C38.0461 10.2835 38.4964 8.55015 38.9917 7.5144L41.9408 1.2334H42.256L45.25 7.5144C45.7453 8.55015 46.1956 10.2835 46.1956 10.2835C46.1956 10.2835 46.6233 8.57279 47.006 7.5144L49.2123 1.36853H52.2739L46.7135 16.8121H46.3983L42.9539 9.42813C42.5485 8.57279 42.0986 7.15394 42.0986 7.15394C42.0986 7.15394 41.6256 8.57279 41.2206 9.42813L37.6411 16.8121H37.3259L31.6749 1.36853Z" fill="#7E7E7E"/>
</svg>
